<?xml version="1.0" encoding="UTF-8" standalone="no"?>
<svg
   xmlns:dc="http://purl.org/dc/elements/1.1/"
   xmlns:cc="http://creativecommons.org/ns#"
   xmlns:rdf="http://www.w3.org/1999/02/22-rdf-syntax-ns#"
   xmlns:svg="http://www.w3.org/2000/svg"
   xmlns="http://www.w3.org/2000/svg"
   xmlns:sodipodi="http://sodipodi.sourceforge.net/DTD/sodipodi-0.dtd"
   xmlns:inkscape="http://www.inkscape.org/namespaces/inkscape"
   width="204.13193mm"
   height="120.46843mm"
   viewBox="0 0 204.13193 120.46843"
   version="1.1"
   id="svg8"
   inkscape:version="1.0.2 (e86c870879, 2021-01-15)"
   sodipodi:docname="Logo Tribunal Supremo de Elecciones de Costa Rica.svg">
  <defs
     id="defs2" />
  <sodipodi:namedview
     id="base"
     pagecolor="#ffffff"
     bordercolor="#666666"
     borderopacity="1.0"
     inkscape:pageopacity="0.0"
     inkscape:pageshadow="2"
     inkscape:zoom="1.4"
     inkscape:cx="209.27258"
     inkscape:cy="210.76163"
     inkscape:document-units="mm"
     inkscape:current-layer="layer1"
     inkscape:document-rotation="0"
     showgrid="false"
     inkscape:window-width="2560"
     inkscape:window-height="1385"
     inkscape:window-x="0"
     inkscape:window-y="0"
     inkscape:window-maximized="1"
     inkscape:snap-global="false"
     fit-margin-top="0"
     fit-margin-left="0"
     fit-margin-right="0"
     fit-margin-bottom="0" />
  <metadata
     id="metadata5">
    <rdf:RDF>
      <cc:Work
         rdf:about="">
        <dc:format>image/svg+xml</dc:format>
        <dc:type
           rdf:resource="http://purl.org/dc/dcmitype/StillImage" />
        <dc:title />
      </cc:Work>
    </rdf:RDF>
  </metadata>
  <g
     inkscape:label="Layer 1"
     inkscape:groupmode="layer"
     id="layer1"
     transform="translate(-2.4425318,-127.74554)">
    <path
       style="fill:#878d93;fill-opacity:1;fill-rule:evenodd;stroke:#878d93;stroke-width:0.264583px;stroke-linecap:butt;stroke-linejoin:miter;stroke-opacity:1"
       d="M 2.5751628,248.08168 H 205.28211 v -9.6151 H 2.5998095 Z"
       id="path1047" />
    <path
       style="fill:#ffffff;fill-opacity:1;fill-rule:evenodd;stroke:#ffffff;stroke-width:0.264583px;stroke-linecap:butt;stroke-linejoin:miter;stroke-opacity:1"
       d="m 50.447785,165.7943 c 31.089047,-15.66117 64.757555,0.46525 96.902095,-0.48178 l -0.10748,23.87853 c -28.58862,8.03961 -64.362296,1.3827 -96.565011,2.02993 z"
       id="path1236"
       sodipodi:nodetypes="ccccc" />
    <path
       style="fill:#002b7f;fill-opacity:1;fill-rule:evenodd;stroke:#002b7f;stroke-width:0.264583px;stroke-linecap:butt;stroke-linejoin:miter;stroke-opacity:1"
       d="m 50.692127,167.48698 c 22.893794,-11.7146 65.166363,5.1117 96.657753,-2.17446 v -7.17404 c -33.85101,6.06764 -65.493562,-7.8927 -96.565003,2.02993 z"
       id="path1001-4"
       sodipodi:nodetypes="ccccc" />
    <path
       style="fill:#ffffff;fill-opacity:1;fill-rule:evenodd;stroke:#ffffff;stroke-width:0.264583px;stroke-linecap:butt;stroke-linejoin:miter;stroke-opacity:1"
       d="m 12.60996,135.74047 0.713604,-2.44949 -0.0209,-2.43933 h 12.450825 c 52.093711,13.58496 105.615431,15.82624 157.388561,0 h 13.02701 l -0.22992,2.43933 0.9916,2.44949 H 183.803 c -10.3723,9.17567 -108.568909,25.77328 -157.879271,0 z"
       id="path1234"
       sodipodi:nodetypes="ccccccccccc" />
    <path
       style="fill:#878d93;fill-opacity:1;fill-rule:evenodd;stroke:#878d93;stroke-width:0.264583px;stroke-linecap:butt;stroke-linejoin:miter;stroke-opacity:1"
       d="m 18.985111,141.46634 v 13.23372 l 11.576595,4.18295 v 45.22942 h 4.553585 l 0.0072,-48.09217 c -4.012853,-0.74757 -7.951778,-1.64468 -11.573888,-3.18268 v -14.40571 c 17.237998,14.36028 140.495787,15.19866 162.457957,0.37589 v 13.86808 c -7.21585,4.19515 -14.97706,6.25686 -23.30772,6.09089 v 9.22406 c 6.16988,0.22738 11.77266,-0.67823 17.418,-1.49879 v 14.41848 h -17.45365 v 9.69599 h 21.92841 v 13.4726 h 3.90165 v -14.27838 l -23.13639,0.0548 v -6.58105 h 18.58798 V 165.8058 c -6.23036,0.56717 -12.41633,1.70012 -18.70184,1.5642 v -5.73256 c 8.81732,-1.20242 17.11693,-3.19436 24.05084,-7.26904 v -12.80987 l 3.78197,-2.07231 0.10194,-1.60123 3.75299,-2.14452 H 183.803 c -28.41098,17.39765 -139.338972,13.71498 -157.879271,0 H 12.60996 l 3.954542,2.79487 0.172299,1.38414 z"
       id="path971"
       sodipodi:nodetypes="ccccccccccccccccccccccccccccccccccccc" />
    <path
       style="fill:#ce1126;fill-opacity:1;fill-rule:evenodd;stroke:#ce1126;stroke-width:0.264583px;stroke-linecap:butt;stroke-linejoin:miter;stroke-opacity:1"
       d="m 50.797232,185.43944 c 22.893794,-11.7146 64.786478,4.96505 96.277868,-2.32111 l 0.24346,-11.63755 c -33.85101,6.06764 -65.493567,-7.8927 -96.565008,2.02993 z"
       id="path1001-4-9"
       sodipodi:nodetypes="ccccc" />
    <path
       style="fill:#002b7f;fill-opacity:1;fill-rule:evenodd;stroke:#002b7f;stroke-width:0.264583px;stroke-linecap:butt;stroke-linejoin:miter;stroke-opacity:1"
       d="m 50.817922,199.33387 c 22.893794,-11.7146 64.933078,4.31738 96.424478,-2.96878 v -7.17404 c -33.85102,6.06764 -65.49357,-7.8927 -96.565011,2.02993 z"
       id="path1001"
       sodipodi:nodetypes="ccccc" />
    <path
       style="fill:#878d93;fill-opacity:1;fill-rule:evenodd;stroke:#878d93;stroke-width:0.264583px;stroke-linecap:butt;stroke-linejoin:miter;stroke-opacity:1"
       d="m 49.98499,203.77992 1.175401,0.0413 -0.249005,-42.57975 7.378287,0.48392 4.667909,-2.36549 -0.113175,-11.6503 -0.906772,-0.60717 v 11.98798 l -11.952645,-0.5378 z"
       id="path973" />
    <path
       style="fill:#878d93;fill-opacity:1;fill-rule:evenodd;stroke:#878d93;stroke-width:0.270837px;stroke-linecap:butt;stroke-linejoin:miter;stroke-opacity:1"
       d="m 81.544151,185.46806 16.634216,0.42703 c 1.426838,11.71197 14.480983,6.7958 10.994353,0.46597 -3.29494,-3.49965 -9.768676,-3.34345 -15.402659,-6.04869 -3.762473,-1.80661 -6.299519,-4.00285 -8.560184,-6.97396 -2.935924,-4.60526 -3.830265,-8.09009 -2.032631,-12.86019 7.947428,-20.63673 46.102554,-15.37709 43.161544,7.05477 l -15.81835,0.19122 c -2.85445,-11.22716 -23.582439,-3.70268 0.42065,4.23431 25.8595,6.61843 15.65099,34.56681 0.27142,31.83198 H 92.539418 C 84.519563,199.7551 81.722322,193.51763 81.544151,185.46806 Z"
       id="path967"
       sodipodi:nodetypes="cccscccccccc" />
    <path
       style="fill:#ffffff;fill-opacity:1;fill-rule:evenodd;stroke:none;stroke-width:0.665;stroke-linecap:butt;stroke-linejoin:miter;stroke-miterlimit:4;stroke-dasharray:none;stroke-opacity:1"
       d="m 41.987163,219.47808 h 18.239663 c 28.379695,-3.2572 57.331964,-4.97505 88.773624,0 h 18.46898 l 25.08205,-0.32883 0.15284,-14.83534 c -58.64513,-1.21773 -117.296084,-1.15808 -175.952045,0 v 15.02889 z"
       id="path955-7"
       sodipodi:nodetypes="ccccccccc" />
    <path
       style="fill:#ffffff;fill-opacity:1;fill-rule:evenodd;stroke:#878d93;stroke-width:0.264583px;stroke-linecap:butt;stroke-linejoin:miter;stroke-opacity:1"
       d="m 147.54291,203.69556 0.0392,-55.85583 c 10.84079,-1.09298 19.02891,-1.40263 38.42445,-9.03197 v 13.86808 c -6.79716,3.2785 -13.83295,6.25058 -23.30772,6.09089 v 9.22406 c 5.85916,0.0858 11.65983,-0.4725 17.418,-1.49879 v 14.41848 H 162.6632 v 9.69599 h 21.92841 v 13.4726 z"
       id="path969"
       sodipodi:nodetypes="ccccccccccccc" />
    <path
       style="fill:#ffffff;fill-opacity:1;fill-rule:evenodd;stroke:#878d93;stroke-width:0.264348px;stroke-linecap:butt;stroke-linejoin:miter;stroke-opacity:1"
       d="m 82.240414,186.03094 h 15.099742 c 3.361774,13.19749 16.249774,6.28143 12.902634,0 -3.16311,-3.47287 -9.9142,-4.44611 -15.322774,-7.13067 -3.61195,-1.7928 -6.55999,-3.62596 -8.73021,-6.57435 -2.818468,-4.57005 -3.857305,-7.10463 -2.131589,-11.83825 6.880699,-18.75532 42.776773,-14.84871 41.632783,4.75334 l -14.71913,-0.16063 c -2.94007,-11.70821 -25.174074,0.70389 0,7.31031 26.08243,6.41261 16.12196,33.79984 0,31.07805 H 93.045836 c -7.699,-4.00454 -10.634378,-9.44978 -10.805422,-17.4378 z"
       id="path967-1"
       sodipodi:nodetypes="cccscccccccc" />
    <path
       style="fill:#878d93;fill-opacity:1;fill-rule:evenodd;stroke:#878d93;stroke-width:0.264583px;stroke-linecap:butt;stroke-linejoin:miter;stroke-opacity:1"
       d="m 147.7619,147.71309 -1.01728,-0.0973 -0.0382,56.10603 h 0.82241 z"
       id="path995"
       sodipodi:nodetypes="ccccc" />
    <path
       style="fill:none;fill-rule:evenodd;stroke:#878d93;stroke-width:1.165;stroke-linecap:butt;stroke-linejoin:miter;stroke-miterlimit:4;stroke-dasharray:none;stroke-opacity:1"
       d="m 13.323564,133.29098 h 12.23231 c 19.85291,15.67879 142.887706,16.01296 157.752876,0 h 12.63039"
       id="path997"
       sodipodi:nodetypes="cccc" />
    <path
       style="fill:#878d93;fill-opacity:1;fill-rule:evenodd;stroke:#878d93;stroke-width:0.264583px;stroke-linecap:butt;stroke-linejoin:miter;stroke-opacity:1"
       d="m 10.775244,127.91334 v 1.38667 h 0.975776 l 1.551643,1.55164 h 12.450825 c 20.438753,14.11549 133.640592,18.05377 157.388562,0 h 13.02701 l 1.24759,-1.58418 0.95823,-0.024 v -1.36551 H 182.9766 c -21.51298,18.69445 -141.998212,15.40542 -155.95585,0 z"
       id="path999"
       sodipodi:nodetypes="ccccccccccccc" />
    <path
       style="fill:#ffffff;fill-opacity:1;fill-rule:evenodd;stroke:#878d93;stroke-width:0.264583px;stroke-linecap:butt;stroke-linejoin:miter;stroke-opacity:1"
       d="m 35.122453,203.94972 v -47.92946 c -5.471149,-0.92493 -8.332816,-2.06979 -11.573888,-3.18268 v -14.40571 c 12.355972,5.84002 25.100272,8.73703 38.273045,9.1059 l 0.116025,11.55269 c -5.591586,0.21496 -8.540904,-0.21813 -11.952645,-0.5378 v 45.22726 c -4.831189,0.0757 -9.449102,0.0222 -14.862537,0.1698 z"
       id="path965"
       sodipodi:nodetypes="ccccccccc" />
    <path
       style="fill:#878d93;fill-opacity:1;fill-rule:evenodd;stroke:#878d93;stroke-width:0.665;stroke-linecap:butt;stroke-linejoin:miter;stroke-miterlimit:4;stroke-dasharray:none;stroke-opacity:1"
       d="M 3.2153357,219.47808 H 41.987163 v -4.68051 h -8.35238 v -3.86319 h -8.35399 v -3.33915 h -8.528518 v -3.28132 H 8.3316113 L 3.2258998,214.5018 Z"
       id="path915"
       sodipodi:nodetypes="cccccccccccc" />
    <path
       style="fill:#878d93;fill-opacity:1;fill-rule:evenodd;stroke:#878d93;stroke-width:0.665;stroke-linecap:butt;stroke-linejoin:miter;stroke-miterlimit:4;stroke-dasharray:none;stroke-opacity:1"
       d="m 206.24126,219.47808 h -38.77183 v -4.68051 h 8.35238 v -3.86319 h 8.35399 v -3.33915 h 8.52852 v -3.28132 h 8.42067 l 5.10571,10.18789 z"
       id="path915-3"
       sodipodi:nodetypes="cccccccccccc" />
    <path
       style="fill:none;fill-rule:evenodd;stroke:#878d93;stroke-width:0.665;stroke-linecap:butt;stroke-linejoin:miter;stroke-miterlimit:4;stroke-dasharray:none;stroke-opacity:1"
       d="m 41.987163,219.47808 h 18.239663 c 28.379695,-3.2572 57.331954,-4.97505 88.773624,0 h 18.46898"
       id="path955"
       sodipodi:nodetypes="cccc" />
    <path
       style="fill:none;fill-rule:evenodd;stroke:#878d93;stroke-width:0.665;stroke-linecap:butt;stroke-linejoin:miter;stroke-miterlimit:4;stroke-dasharray:none;stroke-opacity:1"
       d="m 41.987163,214.79757 c 41.567831,-1.77126 83.361327,-2.00272 125.482267,0"
       id="path957"
       sodipodi:nodetypes="cc" />
    <path
       style="fill:none;fill-rule:evenodd;stroke:#878d93;stroke-width:0.665;stroke-linecap:butt;stroke-linejoin:miter;stroke-miterlimit:4;stroke-dasharray:none;stroke-opacity:1"
       d="m 184.1758,207.59523 c -52.87942,-1.60805 -105.850923,-1.48593 -158.895007,0"
       id="path961"
       sodipodi:nodetypes="cc" />
    <path
       style="fill:none;fill-rule:evenodd;stroke:#878d93;stroke-width:0.665;stroke-linecap:butt;stroke-linejoin:miter;stroke-miterlimit:4;stroke-dasharray:none;stroke-opacity:1"
       d="m 33.634783,210.93438 c 47.315657,-1.77707 94.703427,-1.95267 142.187027,0"
       id="path959"
       sodipodi:nodetypes="cc" />
    <path
       style="fill:none;fill-rule:evenodd;stroke:#878d93;stroke-width:0.665;stroke-linecap:butt;stroke-linejoin:miter;stroke-miterlimit:4;stroke-dasharray:none;stroke-opacity:1"
       d="m 192.70432,204.31391 c -58.75873,-1.18607 -117.402858,-1.1141 -175.952045,0"
       id="path963"
       sodipodi:nodetypes="cc" />
    <path
       d="m 5.3256634,233.85808 v -0.68228 h 1.1510044 v -8.1617 h -2.643295 v 1.49975 H 3.0905735 v -2.26571 h 7.9834195 v 2.26571 H 10.337886 V 225.0141 H 7.6945911 v 8.1617 h 1.1510044 v 0.68228 z"
       style="font-style:normal;font-variant:normal;font-weight:normal;font-stretch:semi-condensed;font-size:13.4411px;line-height:125%;font-family:'DejaVu Serif';-inkscape-font-specification:'DejaVu Serif, Semi-Condensed';font-variant-ligatures:normal;font-variant-caps:normal;font-variant-numeric:normal;font-variant-east-asian:normal;letter-spacing:0px;word-spacing:0px;fill:#000000;fill-opacity:1;stroke:none;stroke-width:0.336027px;stroke-linecap:butt;stroke-linejoin:miter;stroke-opacity:1"
       id="path1132" />
    <path
       d="m 15.356475,227.00303 v 1.71216 h -0.635729 q -0.03346,-0.5085 -0.267676,-0.75953 -0.234216,-0.25103 -0.682572,-0.25103 -0.823102,0 -1.258075,0.60505 -0.434973,0.60504 -0.434973,1.7379 v 3.12822 h 1.27815 v 0.68228 H 9.9695073 v -0.68228 h 0.9970897 v -5.48405 H 9.9092793 v -0.67584 H 12.07745 v 1.21653 q 0.321211,-0.71448 0.829794,-1.05562 0.515276,-0.34758 1.251383,-0.34758 0.267675,0 0.56881,0.045 0.301136,0.045 0.629038,0.12873 z"
       style="font-style:normal;font-variant:normal;font-weight:normal;font-stretch:semi-condensed;font-size:13.4411px;line-height:125%;font-family:'DejaVu Serif';-inkscape-font-specification:'DejaVu Serif, Semi-Condensed';font-variant-ligatures:normal;font-variant-caps:normal;font-variant-numeric:normal;font-variant-east-asian:normal;letter-spacing:0px;word-spacing:0px;fill:#000000;fill-opacity:1;stroke:none;stroke-width:0.336027px;stroke-linecap:butt;stroke-linejoin:miter;stroke-opacity:1"
       id="path1134" />
    <path
       d="m 16.250778,224.8918 q 0,-0.29609 0.200757,-0.51493 0.200756,-0.21884 0.488508,-0.21884 0.274367,0 0.475124,0.21884 0.200756,0.21884 0.200756,0.51493 0,0.30253 -0.200756,0.51494 -0.194065,0.21241 -0.475124,0.21241 -0.287752,0 -0.488508,-0.21241 -0.200757,-0.21241 -0.200757,-0.51494 z m 1.41868,8.284 h 1.043934 v 0.68228 h -3.212105 v -0.68228 h 1.057318 v -5.47117 h -1.057318 v -0.68872 h 2.168171 z"
       style="font-style:normal;font-variant:normal;font-weight:normal;font-stretch:semi-condensed;font-size:13.4411px;line-height:125%;font-family:'DejaVu Serif';-inkscape-font-specification:'DejaVu Serif, Semi-Condensed';font-variant-ligatures:normal;font-variant-caps:normal;font-variant-numeric:normal;font-variant-east-asian:normal;letter-spacing:0px;word-spacing:0px;fill:#000000;fill-opacity:1;stroke:none;stroke-width:0.336027px;stroke-linecap:butt;stroke-linejoin:miter;stroke-opacity:1"
       id="path1136" />
    <path
       d="m 20.495128,233.18701 v -8.65089 h -1.06401 v -0.68228 h 2.174863 v 4.24176 q 0.327903,-0.64366 0.829793,-0.94619 0.501892,-0.30896 1.244691,-0.30896 1.177772,0 1.920572,0.99769 0.749491,0.99768 0.749491,2.60685 0,1.60917 -0.749491,2.61328 -0.7428,0.99769 -1.920572,0.99769 -0.742799,0 -1.244691,-0.30253 -0.50189,-0.30896 -0.829793,-0.95262 v 1.06848 h -2.174863 v -0.68228 z m 1.110853,-2.40088 q 0,1.23584 0.441664,1.88594 0.441665,0.64367 1.284842,0.64367 0.84987,0 1.284843,-0.72734 0.441664,-0.72734 0.441664,-2.14341 0,-1.4225 -0.441664,-2.14341 -0.434973,-0.72091 -1.284843,-0.72091 -0.843177,0 -1.284842,0.6501 -0.441664,0.65011 -0.441664,1.87951 z"
       style="font-style:normal;font-variant:normal;font-weight:normal;font-stretch:semi-condensed;font-size:13.4411px;line-height:125%;font-family:'DejaVu Serif';-inkscape-font-specification:'DejaVu Serif, Semi-Condensed';font-variant-ligatures:normal;font-variant-caps:normal;font-variant-numeric:normal;font-variant-east-asian:normal;letter-spacing:0px;word-spacing:0px;fill:#000000;fill-opacity:1;stroke:none;stroke-width:0.336027px;stroke-linecap:butt;stroke-linejoin:miter;stroke-opacity:1"
       id="path1138" />
    <path
       d="m 31.035784,226.82924 h 2.074484 v 6.15989 h 1.050627 v 0.68228 h -2.161479 v -1.21009 q -0.301136,0.68228 -0.789643,1.04275 -0.488508,0.35401 -1.137621,0.35401 -1.06401,0 -1.565901,-0.64367 -0.501891,-0.6501 -0.501891,-2.03399 v -3.66246 h -0.997092 v -0.68872 h 2.107945 v 3.9843 q 0,1.2487 0.287751,1.71214 0.287751,0.46345 1.023858,0.46345 0.769568,0 1.171081,-0.60505 0.401513,-0.60505 0.401513,-1.75721 v -3.10891 h -0.963632 z"
       style="font-style:normal;font-variant:normal;font-weight:normal;font-stretch:semi-condensed;font-size:13.4411px;line-height:125%;font-family:'DejaVu Serif';-inkscape-font-specification:'DejaVu Serif, Semi-Condensed';font-variant-ligatures:normal;font-variant-caps:normal;font-variant-numeric:normal;font-variant-east-asian:normal;letter-spacing:0px;word-spacing:0px;fill:#000000;fill-opacity:1;stroke:none;stroke-width:0.336027px;stroke-linecap:butt;stroke-linejoin:miter;stroke-opacity:1"
       id="path1140" />
    <path
       d="m 34.728953,233.85808 v -0.68228 h 0.997091 v -5.47117 h -1.057318 v -0.68872 h 2.168171 v 1.21653 q 0.301136,-0.69517 0.789643,-1.04919 0.495199,-0.35401 1.144313,-0.35401 1.06401,0 1.559209,0.6501 0.501891,0.65011 0.501891,2.02755 v 3.66891 h 0.9904 v 0.68228 H 38.764161 V 233.1758 H 39.7211 v -3.29557 q 0,-1.25516 -0.294442,-1.71859 -0.287752,-0.46989 -1.017167,-0.46989 -0.769567,0 -1.171081,0.60505 -0.401513,0.59861 -0.401513,1.75078 v 3.12822 h 0.963632 v 0.68228 z"
       style="font-style:normal;font-variant:normal;font-weight:normal;font-stretch:semi-condensed;font-size:13.4411px;line-height:125%;font-family:'DejaVu Serif';-inkscape-font-specification:'DejaVu Serif, Semi-Condensed';font-variant-ligatures:normal;font-variant-caps:normal;font-variant-numeric:normal;font-variant-east-asian:normal;letter-spacing:0px;word-spacing:0px;fill:#000000;fill-opacity:1;stroke:none;stroke-width:0.336027px;stroke-linecap:butt;stroke-linejoin:miter;stroke-opacity:1"
       id="path1142" />
    <path
       d="m 47.194575,231.52157 v -1.44825 h -1.432064 q -0.823101,0 -1.231307,0.37976 -0.401513,0.37976 -0.401513,1.16504 0,0.71446 0.408205,1.13285 0.414898,0.41839 1.110853,0.41839 0.695956,0 1.117546,-0.45701 0.42828,-0.457 0.42828,-1.19078 z m 1.104161,-2.1241 v 3.59166 h 0.9904 v 0.68228 h -2.094561 v -0.74022 q -0.368054,0.47632 -0.84987,0.70161 -0.481815,0.22528 -1.130928,0.22528 -1.06401,0 -1.693047,-0.60505 -0.622346,-0.60505 -0.622346,-1.63491 0,-1.06206 0.716032,-1.64779 0.716032,-0.58574 2.020949,-0.58574 h 1.55921 v -0.46987 q 0,-0.77884 -0.448356,-1.20366 -0.441665,-0.43126 -1.237999,-0.43126 -0.669189,0 -1.057318,0.32184 -0.388129,0.32183 -0.488508,0.95262 h -0.56881 v -1.38388 q 0.575502,-0.26391 1.117545,-0.39264 0.548734,-0.13517 1.06401,-0.13517 1.331685,0 2.027641,0.70803 0.695956,0.7016 0.695956,2.04687 z"
       style="font-style:normal;font-variant:normal;font-weight:normal;font-stretch:semi-condensed;font-size:13.4411px;line-height:125%;font-family:'DejaVu Serif';-inkscape-font-specification:'DejaVu Serif, Semi-Condensed';font-variant-ligatures:normal;font-variant-caps:normal;font-variant-numeric:normal;font-variant-east-asian:normal;letter-spacing:0px;word-spacing:0px;fill:#000000;fill-opacity:1;stroke:none;stroke-width:0.336027px;stroke-linecap:butt;stroke-linejoin:miter;stroke-opacity:1"
       id="path1144" />
    <path
       d="m 51.864364,233.1758 h 1.050626 v 0.68228 h -3.225489 v -0.68228 h 1.06401 v -8.65089 h -1.06401 v -0.68228 h 2.174863 z"
       style="font-style:normal;font-variant:normal;font-weight:normal;font-stretch:semi-condensed;font-size:13.4411px;line-height:125%;font-family:'DejaVu Serif';-inkscape-font-specification:'DejaVu Serif, Semi-Condensed';font-variant-ligatures:normal;font-variant-caps:normal;font-variant-numeric:normal;font-variant-east-asian:normal;letter-spacing:0px;word-spacing:0px;fill:#000000;fill-opacity:1;stroke:none;stroke-width:0.336027px;stroke-linecap:butt;stroke-linejoin:miter;stroke-opacity:1"
       id="path1146" />
    <path
       d="m 57.889562,233.23754 v -2.18848 l 0.689263,0.007 q 0.03346,1.09423 0.595579,1.62203 0.562118,0.52138 1.713122,0.52138 1.070702,0 1.63282,-0.45058 0.568811,-0.45699 0.568811,-1.32594 0,-0.69517 -0.341286,-1.0685 -0.341286,-0.37332 -1.438756,-0.72734 l -1.184464,-0.37976 q -1.291534,-0.41839 -1.820193,-1.04274 -0.521967,-0.62435 -0.521967,-1.71216 0,-1.22296 0.809719,-1.89881 0.816409,-0.67585 2.281932,-0.67585 0.629038,0 1.371837,0.14804 0.749491,0.1416 1.592669,0.41838 v 2.04687 h -0.682572 q -0.100383,-1.017 -0.63573,-1.46756 -0.528659,-0.45701 -1.619436,-0.45701 -0.950248,0 -1.45214,0.41839 -0.495198,0.41194 -0.495198,1.20365 0,0.68872 0.374745,1.08137 0.374746,0.39263 1.585976,0.77883 l 1.110854,0.35401 q 1.224615,0.39265 1.746582,1.00413 0.521967,0.60504 0.521967,1.62847 0,1.39676 -0.836485,2.1048 -0.836486,0.70803 -2.496074,0.70803 -0.742799,0 -1.512367,-0.16091 -0.762874,-0.16092 -1.559208,-0.48919 z"
       style="font-style:normal;font-variant:normal;font-weight:normal;font-stretch:semi-condensed;font-size:13.4411px;line-height:125%;font-family:'DejaVu Serif';-inkscape-font-specification:'DejaVu Serif, Semi-Condensed';font-variant-ligatures:normal;font-variant-caps:normal;font-variant-numeric:normal;font-variant-east-asian:normal;letter-spacing:0px;word-spacing:0px;fill:#000000;fill-opacity:1;stroke:none;stroke-width:0.336027px;stroke-linecap:butt;stroke-linejoin:miter;stroke-opacity:1"
       id="path1148" />
    <path
       d="m 69.561586,226.85935 h 2.074485 v 6.15989 h 1.050627 v 0.68228 h -2.16148 v -1.21009 q -0.301135,0.68228 -0.789643,1.04275 -0.488508,0.35401 -1.13762,0.35401 -1.06401,0 -1.565902,-0.64367 -0.501891,-0.6501 -0.501891,-2.03399 v -3.66246 h -0.997091 v -0.68872 h 2.107944 v 3.9843 q 0,1.2487 0.287751,1.71214 0.287752,0.46345 1.023859,0.46345 0.769567,0 1.17108,-0.60505 0.401513,-0.60505 0.401513,-1.75721 v -3.10891 h -0.963632 z"
       style="font-style:normal;font-variant:normal;font-weight:normal;font-stretch:semi-condensed;font-size:13.4411px;line-height:125%;font-family:'DejaVu Serif';-inkscape-font-specification:'DejaVu Serif, Semi-Condensed';font-variant-ligatures:normal;font-variant-caps:normal;font-variant-numeric:normal;font-variant-east-asian:normal;letter-spacing:0px;word-spacing:0px;fill:#000000;fill-opacity:1;stroke:none;stroke-width:0.336027px;stroke-linecap:butt;stroke-linejoin:miter;stroke-opacity:1"
       id="path1150" />
    <path
       d="m 75.660004,229.95139 v 0.67585 q 0,1.23584 0.441665,1.88594 0.441664,0.64367 1.284842,0.64367 0.84987,0 1.284842,-0.72734 0.441665,-0.72734 0.441665,-2.14341 0,-1.4225 -0.441665,-2.14341 -0.434972,-0.72091 -1.284842,-0.72091 -0.843178,0 -1.284842,0.6501 -0.441665,0.65011 -0.441665,1.87951 z m -1.110853,-2.39444 h -1.06401 v -0.68872 h 2.174863 v 1.06848 q 0.327903,-0.64366 0.829794,-0.94619 0.501892,-0.30896 1.244691,-0.30896 1.177772,0 1.920572,0.99769 0.749491,0.99768 0.749491,2.60685 0,1.60917 -0.749491,2.61328 -0.7428,0.99769 -1.920572,0.99769 -0.742799,0 -1.244691,-0.30253 -0.501891,-0.30896 -0.829794,-0.95262 v 3.12178 h 1.050626 v 0.68873 h -3.225489 v -0.68873 h 1.06401 z"
       style="font-style:normal;font-variant:normal;font-weight:normal;font-stretch:semi-condensed;font-size:13.4411px;line-height:125%;font-family:'DejaVu Serif';-inkscape-font-specification:'DejaVu Serif, Semi-Condensed';font-variant-ligatures:normal;font-variant-caps:normal;font-variant-numeric:normal;font-variant-east-asian:normal;letter-spacing:0px;word-spacing:0px;fill:#000000;fill-opacity:1;stroke:none;stroke-width:0.336027px;stroke-linecap:butt;stroke-linejoin:miter;stroke-opacity:1"
       id="path1152" />
    <path
       d="m 87.402707,227.03314 v 1.71216 h -0.63573 q -0.03345,-0.5085 -0.267676,-0.75953 -0.234215,-0.25103 -0.682571,-0.25103 -0.823103,0 -1.258075,0.60505 -0.434973,0.60504 -0.434973,1.7379 v 3.12822 h 1.27815 v 0.68228 h -3.386093 v -0.68228 h 0.99709 v -5.48405 h -1.057318 v -0.67584 h 2.168171 v 1.21653 q 0.321211,-0.71448 0.829794,-1.05562 0.515276,-0.34758 1.251383,-0.34758 0.267675,0 0.56881,0.045 0.301135,0.045 0.629038,0.12873 z"
       style="font-style:normal;font-variant:normal;font-weight:normal;font-stretch:semi-condensed;font-size:13.4411px;line-height:125%;font-family:'DejaVu Serif';-inkscape-font-specification:'DejaVu Serif, Semi-Condensed';font-variant-ligatures:normal;font-variant-caps:normal;font-variant-numeric:normal;font-variant-east-asian:normal;letter-spacing:0px;word-spacing:0px;fill:#000000;fill-opacity:1;stroke:none;stroke-width:0.336027px;stroke-linecap:butt;stroke-linejoin:miter;stroke-opacity:1"
       id="path1154" />
    <path
       d="m 94.460686,230.40594 h -4.778007 v 0.0515 q 0,1.38389 0.488508,2.09192 0.488508,0.7016 1.438755,0.7016 0.729416,0 1.197848,-0.40551 0.468432,-0.41195 0.655804,-1.21653 h 0.890021 q -0.267675,1.12642 -0.983706,1.69284 -0.70934,0.56643 -1.873729,0.56643 -1.405296,0 -2.255165,-0.98481 -0.84987,-0.99125 -0.84987,-2.62616 0,-1.62205 0.836486,-2.61329 0.836485,-0.99125 2.194939,-0.99125 1.452139,0 2.228397,0.95907 0.77626,0.95262 0.809719,2.7742 z m -1.304919,-0.68228 q -0.04015,-1.19723 -0.475123,-1.80227 -0.434973,-0.61149 -1.258074,-0.61149 -0.762875,0 -1.20454,0.61149 -0.434972,0.61148 -0.535351,1.80227 z"
       style="font-style:normal;font-variant:normal;font-weight:normal;font-stretch:semi-condensed;font-size:13.4411px;line-height:125%;font-family:'DejaVu Serif';-inkscape-font-specification:'DejaVu Serif, Semi-Condensed';font-variant-ligatures:normal;font-variant-caps:normal;font-variant-numeric:normal;font-variant-east-asian:normal;letter-spacing:0px;word-spacing:0px;fill:#000000;fill-opacity:1;stroke:none;stroke-width:0.336027px;stroke-linecap:butt;stroke-linejoin:miter;stroke-opacity:1"
       id="path1156" />
    <path
       d="m 101.49951,228.3784 q 0.32121,-0.75308 0.81641,-1.13285 0.4952,-0.3862 1.15769,-0.3862 1.00379,0 1.49898,0.66941 0.49521,0.66299 0.49521,2.00824 v 3.66891 h 0.99709 v 0.68228 h -3.07157 v -0.68228 h 0.96362 v -3.53374 q 0,-1.04917 -0.28775,-1.4933 -0.28775,-0.44413 -0.95694,-0.44413 -0.7428,0 -1.13093,0.59861 -0.38813,0.59861 -0.38813,1.74434 v 3.12822 h 0.96364 v 0.68228 h -3.031433 v -0.68228 h 0.963633 v -3.57879 q 0,-1.02343 -0.29444,-1.45469 -0.287763,-0.43769 -0.956943,-0.43769 -0.73611,0 -1.12424,0.59861 -0.38813,0.59861 -0.38813,1.74434 v 3.12822 h 0.96363 v 0.68228 h -3.071571 v -0.68228 h 0.99709 v -5.48405 h -1.057318 v -0.67584 h 2.168169 v 1.21653 q 0.30114,-0.68229 0.77626,-1.04274 0.48182,-0.36046 1.08409,-0.36046 0.742793,0 1.244693,0.39908 0.50189,0.39263 0.66919,1.11997 z"
       style="font-style:normal;font-variant:normal;font-weight:normal;font-stretch:semi-condensed;font-size:13.4411px;line-height:125%;font-family:'DejaVu Serif';-inkscape-font-specification:'DejaVu Serif, Semi-Condensed';font-variant-ligatures:normal;font-variant-caps:normal;font-variant-numeric:normal;font-variant-east-asian:normal;letter-spacing:0px;word-spacing:0px;fill:#000000;fill-opacity:1;stroke:none;stroke-width:0.336027px;stroke-linecap:butt;stroke-linejoin:miter;stroke-opacity:1"
       id="path1158" />
    <path
       d="m 111.02913,233.25096 q 0.89672,0 1.35176,-0.75309 0.45505,-0.75309 0.45505,-2.22065 0,-1.46756 -0.45505,-2.21422 -0.45504,-0.75309 -1.35176,-0.75309 -0.89002,0 -1.34507,0.75309 -0.45505,0.74666 -0.45505,2.21422 0,1.46756 0.45505,2.22065 0.46174,0.75309 1.34507,0.75309 z m 0,0.63723 q -1.39191,0 -2.24178,-0.98481 -0.84987,-0.99125 -0.84987,-2.62616 0,-1.63491 0.84318,-2.61973 0.84986,-0.98481 2.24847,-0.98481 1.4053,0 2.24847,0.98481 0.84988,0.98482 0.84988,2.61973 0,1.63491 -0.84988,2.62616 -0.84317,0.98481 -2.24847,0.98481 z"
       style="font-style:normal;font-variant:normal;font-weight:normal;font-stretch:semi-condensed;font-size:13.4411px;line-height:125%;font-family:'DejaVu Serif';-inkscape-font-specification:'DejaVu Serif, Semi-Condensed';font-variant-ligatures:normal;font-variant-caps:normal;font-variant-numeric:normal;font-variant-east-asian:normal;letter-spacing:0px;word-spacing:0px;fill:#000000;fill-opacity:1;stroke:none;stroke-width:0.336027px;stroke-linecap:butt;stroke-linejoin:miter;stroke-opacity:1"
       id="path1160" />
    <path
       d="m 126.98415,233.0621 h 1.05732 v 0.68228 h -2.16817 v -1.06848 q -0.32791,0.64366 -0.82979,0.95262 -0.5019,0.30253 -1.2447,0.30253 -1.17776,0 -1.92726,-0.99769 -0.74949,-1.00411 -0.74949,-2.61328 0,-1.60917 0.7428,-2.60685 0.74949,-0.99769 1.93395,-0.99769 0.7428,0 1.2447,0.30896 0.50188,0.30253 0.82979,0.94619 v -3.55948 h -1.05062 v -0.68228 h 2.16147 z m -1.11085,-2.40088 v -0.67585 q 0,-1.2294 -0.44167,-1.87951 -0.44166,-0.6501 -1.28484,-0.6501 -0.85656,0 -1.29822,0.72091 -0.43498,0.72091 -0.43498,2.14341 0,1.41607 0.43498,2.14341 0.44166,0.72734 1.29822,0.72734 0.84318,0 1.28484,-0.64367 0.44167,-0.6501 0.44167,-1.88594 z"
       style="font-style:normal;font-variant:normal;font-weight:normal;font-stretch:semi-condensed;font-size:13.4411px;line-height:125%;font-family:'DejaVu Serif';-inkscape-font-specification:'DejaVu Serif, Semi-Condensed';font-variant-ligatures:normal;font-variant-caps:normal;font-variant-numeric:normal;font-variant-east-asian:normal;letter-spacing:0px;word-spacing:0px;fill:#000000;fill-opacity:1;stroke:none;stroke-width:0.336027px;stroke-linecap:butt;stroke-linejoin:miter;stroke-opacity:1"
       id="path1162" />
    <path
       d="m 135.08133,230.44881 h -4.77801 v 0.0515 q 0,1.38389 0.48851,2.09192 0.48851,0.7016 1.43875,0.7016 0.72942,0 1.19786,-0.40551 0.46843,-0.41195 0.65579,-1.21653 h 0.89003 q -0.26767,1.12642 -0.98371,1.69284 -0.70934,0.56643 -1.87373,0.56643 -1.4053,0 -2.25516,-0.98481 -0.84987,-0.99125 -0.84987,-2.62616 0,-1.62205 0.83648,-2.61329 0.83649,-0.99125 2.19494,-0.99125 1.45214,0 2.2284,0.95907 0.77626,0.95262 0.80972,2.7742 z m -1.30492,-0.68228 q -0.0402,-1.19723 -0.47512,-1.80227 -0.43498,-0.61149 -1.25808,-0.61149 -0.76287,0 -1.20454,0.61149 -0.43497,0.61148 -0.53535,1.80227 z"
       style="font-style:normal;font-variant:normal;font-weight:normal;font-stretch:semi-condensed;font-size:13.4411px;line-height:125%;font-family:'DejaVu Serif';-inkscape-font-specification:'DejaVu Serif, Semi-Condensed';font-variant-ligatures:normal;font-variant-caps:normal;font-variant-numeric:normal;font-variant-east-asian:normal;letter-spacing:0px;word-spacing:0px;fill:#000000;fill-opacity:1;stroke:none;stroke-width:0.336027px;stroke-linecap:butt;stroke-linejoin:miter;stroke-opacity:1"
       id="path1164" />
    <path
       d="m 140.28762,233.74438 v -0.68228 h 1.14431 v -8.23894 h -1.14431 v -0.68872 h 7.24062 v 2.13697 h -0.7428 v -1.34527 h -4.13559 v 3.21834 h 2.95112 v -1.20366 h 0.73612 v 3.19259 h -0.73612 v -1.20366 h -2.95112 v 4.02292 h 4.22927 v -1.34526 h 0.7428 v 2.13697 z"
       style="font-style:normal;font-variant:normal;font-weight:normal;font-stretch:semi-condensed;font-size:13.4411px;line-height:125%;font-family:'DejaVu Serif';-inkscape-font-specification:'DejaVu Serif, Semi-Condensed';font-variant-ligatures:normal;font-variant-caps:normal;font-variant-numeric:normal;font-variant-east-asian:normal;letter-spacing:0px;word-spacing:0px;fill:#000000;fill-opacity:1;stroke:none;stroke-width:0.336027px;stroke-linecap:butt;stroke-linejoin:miter;stroke-opacity:1"
       id="path1166" />
    <path
       d="m 151.13516,233.0621 h 1.05063 v 0.68228 h -3.22549 v -0.68228 h 1.06401 v -8.65089 h -1.06401 v -0.68228 h 2.17486 z"
       style="font-style:normal;font-variant:normal;font-weight:normal;font-stretch:semi-condensed;font-size:13.4411px;line-height:125%;font-family:'DejaVu Serif';-inkscape-font-specification:'DejaVu Serif, Semi-Condensed';font-variant-ligatures:normal;font-variant-caps:normal;font-variant-numeric:normal;font-variant-east-asian:normal;letter-spacing:0px;word-spacing:0px;fill:#000000;fill-opacity:1;stroke:none;stroke-width:0.336027px;stroke-linecap:butt;stroke-linejoin:miter;stroke-opacity:1"
       id="path1168" />
    <path
       d="m 159.23235,230.44881 h -4.77801 v 0.0515 q 0,1.38389 0.4885,2.09192 0.48852,0.7016 1.43877,0.7016 0.72941,0 1.19784,-0.40551 0.46843,-0.41195 0.65581,-1.21653 h 0.89002 q -0.26768,1.12642 -0.98371,1.69284 -0.70934,0.56643 -1.87372,0.56643 -1.4053,0 -2.25518,-0.98481 -0.84986,-0.99125 -0.84986,-2.62616 0,-1.62205 0.83649,-2.61329 0.83648,-0.99125 2.19493,-0.99125 1.45214,0 2.2284,0.95907 0.77626,0.95262 0.80972,2.7742 z m -1.30492,-0.68228 q -0.0402,-1.19723 -0.47513,-1.80227 -0.43496,-0.61149 -1.25807,-0.61149 -0.76287,0 -1.20453,0.61149 -0.43498,0.61148 -0.53536,1.80227 z"
       style="font-style:normal;font-variant:normal;font-weight:normal;font-stretch:semi-condensed;font-size:13.4411px;line-height:125%;font-family:'DejaVu Serif';-inkscape-font-specification:'DejaVu Serif, Semi-Condensed';font-variant-ligatures:normal;font-variant-caps:normal;font-variant-numeric:normal;font-variant-east-asian:normal;letter-spacing:0px;word-spacing:0px;fill:#000000;fill-opacity:1;stroke:none;stroke-width:0.336027px;stroke-linecap:butt;stroke-linejoin:miter;stroke-opacity:1"
       id="path1170" />
    <path
       d="m 166.18521,231.69109 q -0.23422,1.09423 -0.9034,1.66709 -0.6692,0.57287 -1.73321,0.57287 -1.39191,0 -2.24178,-0.98481 -0.84986,-0.99125 -0.84986,-2.62616 0,-1.64136 0.84986,-2.61973 0.84987,-0.98481 2.24178,-0.98481 0.60897,0 1.21124,0.15448 0.60227,0.14804 1.21123,0.45701 v 1.75077 h -0.64242 q -0.12715,-0.90113 -0.55543,-1.31308 -0.42158,-0.41195 -1.21123,-0.41195 -0.89671,0 -1.35845,0.74665 -0.45505,0.74022 -0.45505,2.22066 0,1.48043 0.45505,2.22708 0.45505,0.74666 1.35845,0.74666 0.71603,0 1.14432,-0.39908 0.42827,-0.39907 0.58219,-1.20365 z"
       style="font-style:normal;font-variant:normal;font-weight:normal;font-stretch:semi-condensed;font-size:13.4411px;line-height:125%;font-family:'DejaVu Serif';-inkscape-font-specification:'DejaVu Serif, Semi-Condensed';font-variant-ligatures:normal;font-variant-caps:normal;font-variant-numeric:normal;font-variant-east-asian:normal;letter-spacing:0px;word-spacing:0px;fill:#000000;fill-opacity:1;stroke:none;stroke-width:0.336027px;stroke-linecap:butt;stroke-linejoin:miter;stroke-opacity:1"
       id="path1172" />
    <path
       d="m 173.09123,231.69109 q -0.23421,1.09423 -0.9034,1.66709 -0.66919,0.57287 -1.73319,0.57287 -1.39191,0 -2.24179,-0.98481 -0.84987,-0.99125 -0.84987,-2.62616 0,-1.64136 0.84987,-2.61973 0.84988,-0.98481 2.24179,-0.98481 0.60895,0 1.21123,0.15448 0.60226,0.14804 1.21123,0.45701 v 1.75077 h -0.64242 q -0.12715,-0.90113 -0.55543,-1.31308 -0.42159,-0.41195 -1.21124,-0.41195 -0.8967,0 -1.35844,0.74665 -0.45505,0.74022 -0.45505,2.22066 0,1.48043 0.45505,2.22708 0.45504,0.74666 1.35844,0.74666 0.71604,0 1.14432,-0.39908 0.42828,-0.39907 0.5822,-1.20365 z"
       style="font-style:normal;font-variant:normal;font-weight:normal;font-stretch:semi-condensed;font-size:13.4411px;line-height:125%;font-family:'DejaVu Serif';-inkscape-font-specification:'DejaVu Serif, Semi-Condensed';font-variant-ligatures:normal;font-variant-caps:normal;font-variant-numeric:normal;font-variant-east-asian:normal;letter-spacing:0px;word-spacing:0px;fill:#000000;fill-opacity:1;stroke:none;stroke-width:0.336027px;stroke-linecap:butt;stroke-linejoin:miter;stroke-opacity:1"
       id="path1174" />
    <path
       d="m 174.85121,224.7781 q 0,-0.29609 0.20076,-0.51493 0.20075,-0.21884 0.4885,-0.21884 0.27436,0 0.47512,0.21884 0.20076,0.21884 0.20076,0.51493 0,0.30253 -0.20076,0.51494 -0.19406,0.21241 -0.47512,0.21241 -0.28775,0 -0.4885,-0.21241 -0.20076,-0.21241 -0.20076,-0.51494 z m 1.41868,8.284 h 1.04393 v 0.68228 h -3.2121 v -0.68228 h 1.05731 v -5.47117 h -1.05731 v -0.68872 h 2.16817 z"
       style="font-style:normal;font-variant:normal;font-weight:normal;font-stretch:semi-condensed;font-size:13.4411px;line-height:125%;font-family:'DejaVu Serif';-inkscape-font-specification:'DejaVu Serif, Semi-Condensed';font-variant-ligatures:normal;font-variant-caps:normal;font-variant-numeric:normal;font-variant-east-asian:normal;letter-spacing:0px;word-spacing:0px;fill:#000000;fill-opacity:1;stroke:none;stroke-width:0.336027px;stroke-linecap:butt;stroke-linejoin:miter;stroke-opacity:1"
       id="path1176" />
    <path
       d="m 181.30219,233.29382 q 0.89671,0 1.35176,-0.75309 0.45505,-0.75309 0.45505,-2.22065 0,-1.46756 -0.45505,-2.21422 -0.45505,-0.75309 -1.35176,-0.75309 -0.89003,0 -1.34508,0.75309 -0.45504,0.74666 -0.45504,2.21422 0,1.46756 0.45504,2.22065 0.46174,0.75309 1.34508,0.75309 z m 0,0.63723 q -1.39192,0 -2.24178,-0.98481 -0.84988,-0.99125 -0.84988,-2.62616 0,-1.63491 0.84318,-2.61973 0.84987,-0.98481 2.24848,-0.98481 1.40529,0 2.24847,0.98481 0.84987,0.98482 0.84987,2.61973 0,1.63491 -0.84987,2.62616 -0.84318,0.98481 -2.24847,0.98481 z"
       style="font-style:normal;font-variant:normal;font-weight:normal;font-stretch:semi-condensed;font-size:13.4411px;line-height:125%;font-family:'DejaVu Serif';-inkscape-font-specification:'DejaVu Serif, Semi-Condensed';font-variant-ligatures:normal;font-variant-caps:normal;font-variant-numeric:normal;font-variant-east-asian:normal;letter-spacing:0px;word-spacing:0px;fill:#000000;fill-opacity:1;stroke:none;stroke-width:0.336027px;stroke-linecap:butt;stroke-linejoin:miter;stroke-opacity:1"
       id="path1178" />
    <path
       d="m 185.52477,233.74438 v -0.68228 h 0.99709 v -5.47117 h -1.05732 v -0.68872 h 2.16817 v 1.21653 q 0.30114,-0.69517 0.78965,-1.04919 0.4952,-0.35401 1.14431,-0.35401 1.06401,0 1.55921,0.6501 0.50189,0.65011 0.50189,2.02755 v 3.66891 h 0.99039 v 0.68228 h -3.05818 v -0.68228 h 0.95694 v -3.29557 q 0,-1.25516 -0.29444,-1.71859 -0.28775,-0.46989 -1.01717,-0.46989 -0.76957,0 -1.17109,0.60505 -0.40151,0.59861 -0.40151,1.75078 v 3.12822 h 0.96364 v 0.68228 z"
       style="font-style:normal;font-variant:normal;font-weight:normal;font-stretch:semi-condensed;font-size:13.4411px;line-height:125%;font-family:'DejaVu Serif';-inkscape-font-specification:'DejaVu Serif, Semi-Condensed';font-variant-ligatures:normal;font-variant-caps:normal;font-variant-numeric:normal;font-variant-east-asian:normal;letter-spacing:0px;word-spacing:0px;fill:#000000;fill-opacity:1;stroke:none;stroke-width:0.336027px;stroke-linecap:butt;stroke-linejoin:miter;stroke-opacity:1"
       id="path1180" />
    <path
       d="m 199.64466,230.44881 h -4.77801 v 0.0515 q 0,1.38389 0.4885,2.09192 0.48851,0.7016 1.43876,0.7016 0.72941,0 1.19785,-0.40551 0.46843,-0.41195 0.65581,-1.21653 h 0.89001 q -0.26767,1.12642 -0.98371,1.69284 -0.70934,0.56643 -1.87372,0.56643 -1.4053,0 -2.25517,-0.98481 -0.84987,-0.99125 -0.84987,-2.62616 0,-1.62205 0.83649,-2.61329 0.83648,-0.99125 2.19494,-0.99125 1.45214,0 2.22839,0.95907 0.77626,0.95262 0.80973,2.7742 z m -1.30492,-0.68228 q -0.0402,-1.19723 -0.47513,-1.80227 -0.43497,-0.61149 -1.25807,-0.61149 -0.76288,0 -1.20454,0.61149 -0.43498,0.61148 -0.53535,1.80227 z"
       style="font-style:normal;font-variant:normal;font-weight:normal;font-stretch:semi-condensed;font-size:13.4411px;line-height:125%;font-family:'DejaVu Serif';-inkscape-font-specification:'DejaVu Serif, Semi-Condensed';font-variant-ligatures:normal;font-variant-caps:normal;font-variant-numeric:normal;font-variant-east-asian:normal;letter-spacing:0px;word-spacing:0px;fill:#000000;fill-opacity:1;stroke:none;stroke-width:0.336027px;stroke-linecap:butt;stroke-linejoin:miter;stroke-opacity:1"
       id="path1182" />
    <path
       d="m 200.94956,233.36462 v -1.59629 h 0.63573 q 0.0201,0.76596 0.44167,1.14572 0.42827,0.37977 1.26476,0.37977 0.7428,0 1.13093,-0.29609 0.39483,-0.30252 0.39483,-0.87539 0,-0.45056 -0.28776,-0.72734 -0.28106,-0.27678 -1.20454,-0.59217 l -0.80303,-0.28965 q -0.8231,-0.28321 -1.19784,-0.70803 -0.36806,-0.42483 -0.36806,-1.08136 0,-0.93976 0.64243,-1.474 0.64911,-0.53425 1.78673,-0.53425 0.50858,0 1.06401,0.1416 0.56211,0.14161 1.15769,0.41196 v 1.4933 h -0.63572 q -0.0268,-0.66298 -0.43498,-1.03631 -0.40821,-0.37332 -1.11754,-0.37332 -0.69595,0 -1.05732,0.2639 -0.35467,0.26391 -0.35467,0.79172 0,0.43125 0.26767,0.69515 0.27438,0.25748 1.08409,0.52781 l 0.88333,0.28965 q 0.9101,0.30252 1.30492,0.75953 0.40151,0.45057 0.40151,1.16504 0,0.97194 -0.69596,1.53192 -0.68926,0.55356 -1.91387,0.55356 -0.62235,0 -1.21123,-0.1416 -0.58889,-0.14161 -1.17778,-0.42483 z"
       style="font-style:normal;font-variant:normal;font-weight:normal;font-stretch:semi-condensed;font-size:13.4411px;line-height:125%;font-family:'DejaVu Serif';-inkscape-font-specification:'DejaVu Serif, Semi-Condensed';font-variant-ligatures:normal;font-variant-caps:normal;font-variant-numeric:normal;font-variant-east-asian:normal;letter-spacing:0px;word-spacing:0px;fill:#000000;fill-opacity:1;stroke:none;stroke-width:0.336027px;stroke-linecap:butt;stroke-linejoin:miter;stroke-opacity:1"
       id="path1184" />
    <g
       id="g1130">
      <path
         d="m 8.7745567,243.01788 h 1.3660483 q 0.76912,0 1.170899,-0.37041 0.407519,-0.37504 0.407519,-1.07881 0,-0.70841 -0.407519,-1.07881 -0.401779,-0.37041 -1.170899,-0.37041 H 8.7745567 Z m -2.026114,3.51887 v -0.4908 h 0.9814887 v -5.92651 H 6.7484427 v -0.49542 h 3.6447093 q 1.159419,0 1.830964,0.52783 0.677285,0.5232 0.677285,1.4168 0,0.88899 -0.677285,1.4168 -0.671545,0.52784 -1.830964,0.52784 H 8.7745567 v 2.53265 h 1.1938574 v 0.4908 z"
         style="font-style:normal;font-variant:normal;font-weight:normal;font-stretch:semi-condensed;font-size:10.5577px;line-height:125%;font-family:'DejaVu Serif';-inkscape-font-specification:'DejaVu Serif, Semi-Condensed';font-variant-ligatures:normal;font-variant-caps:normal;font-variant-numeric:normal;font-variant-east-asian:normal;letter-spacing:0px;word-spacing:0px;fill:#ffffff;fill-opacity:1;stroke:none;stroke-width:0.263942px;stroke-linecap:butt;stroke-linejoin:miter;stroke-opacity:1"
         id="path1053" />
      <path
         d="m 17.109337,246.04596 h 0.981489 v 0.49079 h -3.007603 v -0.49079 h 0.981489 v -5.92652 h -0.981489 v -0.49542 h 3.007603 v 0.49542 h -0.981489 z"
         style="font-style:normal;font-variant:normal;font-weight:normal;font-stretch:semi-condensed;font-size:10.5577px;line-height:125%;font-family:'DejaVu Serif';-inkscape-font-specification:'DejaVu Serif, Semi-Condensed';font-variant-ligatures:normal;font-variant-caps:normal;font-variant-numeric:normal;font-variant-east-asian:normal;letter-spacing:0px;word-spacing:0px;fill:#ffffff;fill-opacity:1;stroke:none;stroke-width:0.263942px;stroke-linecap:butt;stroke-linejoin:miter;stroke-opacity:1"
         id="path1055" />
      <path
         d="m 21.609489,246.53675 v -0.49079 h 0.981489 v -5.92652 h -0.981489 v -0.49542 h 3.007603 v 0.49542 h -0.981489 v 5.84781 h 3.524175 v -1.15753 h 0.637107 v 1.72703 z"
         style="font-style:normal;font-variant:normal;font-weight:normal;font-stretch:semi-condensed;font-size:10.5577px;line-height:125%;font-family:'DejaVu Serif';-inkscape-font-specification:'DejaVu Serif, Semi-Condensed';font-variant-ligatures:normal;font-variant-caps:normal;font-variant-numeric:normal;font-variant-east-asian:normal;letter-spacing:0px;word-spacing:0px;fill:#ffffff;fill-opacity:1;stroke:none;stroke-width:0.263942px;stroke-linecap:butt;stroke-linejoin:miter;stroke-opacity:1"
         id="path1057" />
      <path
         d="m 31.94093,244.03187 h 2.829672 l -1.411966,-3.28737 z m -2.181086,2.50488 v -0.49079 h 0.677284 l 2.749317,-6.42194 h 0.866694 l 2.755056,6.42194 h 0.75764 v 0.49079 h -2.806713 v -0.49079 h 0.860955 l -0.648585,-1.51867 h -3.242931 l -0.642846,1.51867 h 0.843735 v 0.49079 z"
         style="font-style:normal;font-variant:normal;font-weight:normal;font-stretch:semi-condensed;font-size:10.5577px;line-height:125%;font-family:'DejaVu Serif';-inkscape-font-specification:'DejaVu Serif, Semi-Condensed';font-variant-ligatures:normal;font-variant-caps:normal;font-variant-numeric:normal;font-variant-east-asian:normal;letter-spacing:0px;word-spacing:0px;fill:#ffffff;fill-opacity:1;stroke:none;stroke-width:0.263942px;stroke-linecap:butt;stroke-linejoin:miter;stroke-opacity:1"
         id="path1059" />
      <path
         d="m 45.267086,243.10585 q 0.361601,0.0879 0.619888,0.30095 0.264025,0.20836 0.470655,0.58802 l 1.119242,2.05113 h 0.94131 v 0.4908 h -1.819485 l -1.205336,-2.1993 q -0.344383,-0.63895 -0.637107,-0.82415 -0.286985,-0.18984 -0.792079,-0.18984 h -1.153679 v 2.72249 h 1.090543 v 0.4908 h -3.116657 v -0.4908 h 0.981488 v -5.92651 h -0.981488 v -0.49542 h 3.908735 q 1.124981,0 1.73339,0.48153 0.614147,0.48153 0.614147,1.36588 0,0.71303 -0.447697,1.1251 -0.441957,0.40745 -1.32587,0.50932 z m -2.456591,-0.27781 h 1.526759 q 0.7806,0 1.147941,-0.32873 0.37308,-0.33337 0.37308,-1.02788 0,-0.69452 -0.37308,-1.02326 -0.367341,-0.32873 -1.147941,-0.32873 h -1.526759 z"
         style="font-style:normal;font-variant:normal;font-weight:normal;font-stretch:semi-condensed;font-size:10.5577px;line-height:125%;font-family:'DejaVu Serif';-inkscape-font-specification:'DejaVu Serif, Semi-Condensed';font-variant-ligatures:normal;font-variant-caps:normal;font-variant-numeric:normal;font-variant-east-asian:normal;letter-spacing:0px;word-spacing:0px;fill:#ffffff;fill-opacity:1;stroke:none;stroke-width:0.263942px;stroke-linecap:butt;stroke-linejoin:miter;stroke-opacity:1"
         id="path1061" />
      <path
         d="m 58.042846,246.04596 h 0.96427 q 1.503801,0 2.307359,-0.7686 0.803557,-0.76859 0.803557,-2.20392 0,-1.43533 -0.803557,-2.19466 -0.797819,-0.75934 -2.307359,-0.75934 h -0.96427 z m -2.026115,0.49079 v -0.49079 h 0.981489 v -5.92652 h -0.981489 v -0.49542 h 3.065 q 1.997415,0 3.110917,0.91213 1.113502,0.91213 1.113502,2.53729 0,1.6298 -1.119241,2.54655 -1.113502,0.91676 -3.105178,0.91676 z"
         style="font-style:normal;font-variant:normal;font-weight:normal;font-stretch:semi-condensed;font-size:10.5577px;line-height:125%;font-family:'DejaVu Serif';-inkscape-font-specification:'DejaVu Serif, Semi-Condensed';font-variant-ligatures:normal;font-variant-caps:normal;font-variant-numeric:normal;font-variant-east-asian:normal;letter-spacing:0px;word-spacing:0px;fill:#ffffff;fill-opacity:1;stroke:none;stroke-width:0.263942px;stroke-linecap:butt;stroke-linejoin:miter;stroke-opacity:1"
         id="path1063" />
      <path
         d="m 66.609682,246.53675 v -0.4908 h 0.981489 v -5.92651 h -0.981489 v -0.49542 h 6.210354 v 1.53719 H 72.18293 v -0.96769 h -3.547134 v 2.31505 h 2.531207 v -0.86583 h 0.631367 v 2.29652 h -0.631367 v -0.86582 h -2.531207 v 2.89381 h 3.62749 v -0.9677 h 0.637106 v 1.5372 z"
         style="font-style:normal;font-variant:normal;font-weight:normal;font-stretch:semi-condensed;font-size:10.5577px;line-height:125%;font-family:'DejaVu Serif';-inkscape-font-specification:'DejaVu Serif, Semi-Condensed';font-variant-ligatures:normal;font-variant-caps:normal;font-variant-numeric:normal;font-variant-east-asian:normal;letter-spacing:0px;word-spacing:0px;fill:#ffffff;fill-opacity:1;stroke:none;stroke-width:0.263942px;stroke-linecap:butt;stroke-linejoin:miter;stroke-opacity:1"
         id="path1065" />
      <path
         d="m 81.084131,246.53675 v -0.4908 h 0.981489 v -5.92651 h -0.981489 v -0.49543 h 3.007603 v 0.49543 h -0.981489 v 5.84781 h 3.524175 v -1.15753 h 0.637107 v 1.72703 z"
         style="font-style:normal;font-variant:normal;font-weight:normal;font-stretch:semi-condensed;font-size:10.5577px;line-height:125%;font-family:'DejaVu Serif';-inkscape-font-specification:'DejaVu Serif, Semi-Condensed';font-variant-ligatures:normal;font-variant-caps:normal;font-variant-numeric:normal;font-variant-east-asian:normal;letter-spacing:0px;word-spacing:0px;fill:#ffffff;fill-opacity:1;stroke:none;stroke-width:0.263942px;stroke-linecap:butt;stroke-linejoin:miter;stroke-opacity:1"
         id="path1067" />
      <path
         d="m 92.21876,244.03186 h 2.829671 l -1.411966,-3.28736 z m -2.181087,2.50489 v -0.4908 h 0.677285 l 2.749316,-6.42193 h 0.866694 l 2.755056,6.42193 h 0.757641 v 0.4908 h -2.806713 v -0.4908 h 0.860955 l -0.648586,-1.51867 h -3.24293 l -0.642846,1.51867 h 0.843735 v 0.4908 z"
         style="font-style:normal;font-variant:normal;font-weight:normal;font-stretch:semi-condensed;font-size:10.5577px;line-height:125%;font-family:'DejaVu Serif';-inkscape-font-specification:'DejaVu Serif, Semi-Condensed';font-variant-ligatures:normal;font-variant-caps:normal;font-variant-numeric:normal;font-variant-east-asian:normal;letter-spacing:0px;word-spacing:0px;fill:#ffffff;fill-opacity:1;stroke:none;stroke-width:0.263942px;stroke-linecap:butt;stroke-linejoin:miter;stroke-opacity:1"
         id="path1069" />
      <path
         d="m 109.01719,246.04595 h 0.96426 q 1.5038,0 2.30736,-0.76859 0.80356,-0.7686 0.80356,-2.20393 0,-1.43533 -0.80356,-2.19466 -0.79781,-0.75933 -2.30736,-0.75933 h -0.96426 z m -2.02612,0.4908 v -0.4908 h 0.98149 v -5.92651 h -0.98149 v -0.49543 h 3.065 q 1.99741,0 3.11092,0.91213 1.1135,0.91213 1.1135,2.53729 0,1.6298 -1.11924,2.54655 -1.1135,0.91677 -3.10518,0.91677 z"
         style="font-style:normal;font-variant:normal;font-weight:normal;font-stretch:semi-condensed;font-size:10.5577px;line-height:125%;font-family:'DejaVu Serif';-inkscape-font-specification:'DejaVu Serif, Semi-Condensed';font-variant-ligatures:normal;font-variant-caps:normal;font-variant-numeric:normal;font-variant-east-asian:normal;letter-spacing:0px;word-spacing:0px;fill:#ffffff;fill-opacity:1;stroke:none;stroke-width:0.263942px;stroke-linecap:butt;stroke-linejoin:miter;stroke-opacity:1"
         id="path1071" />
      <path
         d="m 116.98263,246.53675 v -0.4908 h 0.9815 v -5.92651 h -0.9815 v -0.49542 h 6.21036 v 1.53719 h -0.63711 v -0.96769 h -3.54713 v 2.31505 h 2.5312 v -0.86583 h 0.63137 v 2.29653 h -0.63137 v -0.86583 h -2.5312 v 2.89381 h 3.62749 v -0.9677 h 0.63711 v 1.5372 z"
         style="font-style:normal;font-variant:normal;font-weight:normal;font-stretch:semi-condensed;font-size:10.5577px;line-height:125%;font-family:'DejaVu Serif';-inkscape-font-specification:'DejaVu Serif, Semi-Condensed';font-variant-ligatures:normal;font-variant-caps:normal;font-variant-numeric:normal;font-variant-east-asian:normal;letter-spacing:0px;word-spacing:0px;fill:#ffffff;fill-opacity:1;stroke:none;stroke-width:0.263942px;stroke-linecap:butt;stroke-linejoin:miter;stroke-opacity:1"
         id="path1073" />
      <path
         d="m 125.92867,246.53675 v -0.4908 h 0.9815 v -5.92651 h -1.03889 v -0.49542 h 2.24423 l 2.70913,4.92178 2.7034,-4.92178 h 2.11221 v 0.49542 h -1.02741 v 5.92651 h 0.98149 v 0.4908 h -3.01335 v -0.4908 h 0.98149 v -5.34312 l -2.64599,4.81992 h -0.72894 l -2.64601,-4.81992 v 5.34312 h 0.98149 v 0.4908 z"
         style="font-style:normal;font-variant:normal;font-weight:normal;font-stretch:semi-condensed;font-size:10.5577px;line-height:125%;font-family:'DejaVu Serif';-inkscape-font-specification:'DejaVu Serif, Semi-Condensed';font-variant-ligatures:normal;font-variant-caps:normal;font-variant-numeric:normal;font-variant-east-asian:normal;letter-spacing:0px;word-spacing:0px;fill:#ffffff;fill-opacity:1;stroke:none;stroke-width:0.263942px;stroke-linecap:butt;stroke-linejoin:miter;stroke-opacity:1"
         id="path1075" />
      <path
         d="m 142.35474,246.04133 q 1.26273,0 1.91131,-0.77785 0.64859,-0.78249 0.64859,-2.31042 0,-1.53256 -0.64859,-2.31042 -0.64858,-0.78249 -1.91131,-0.78249 -1.26847,0 -1.91705,0.78249 -0.64286,0.77786 -0.64286,2.31042 0,1.52793 0.64286,2.31042 0.64858,0.77785 1.91705,0.77785 z m 0,0.49542 q -0.78634,0 -1.4464,-0.23151 -0.65433,-0.2315 -1.15942,-0.68062 -0.57397,-0.51857 -0.85521,-1.17605 -0.28125,-0.65747 -0.28125,-1.49551 0,-0.83805 0.28125,-1.49552 0.28124,-0.6621 0.85521,-1.18068 0.51083,-0.45375 1.15942,-0.68062 0.64858,-0.23151 1.4464,-0.23151 1.67599,0 2.70914,0.98622 1.03314,0.98621 1.03314,2.60211 0,0.82878 -0.28124,1.49551 -0.28124,0.66211 -0.86096,1.17605 -0.51083,0.45375 -1.15942,0.68525 -0.64859,0.22688 -1.44066,0.22688 z"
         style="font-style:normal;font-variant:normal;font-weight:normal;font-stretch:semi-condensed;font-size:10.5577px;line-height:125%;font-family:'DejaVu Serif';-inkscape-font-specification:'DejaVu Serif, Semi-Condensed';font-variant-ligatures:normal;font-variant-caps:normal;font-variant-numeric:normal;font-variant-east-asian:normal;letter-spacing:0px;word-spacing:0px;fill:#ffffff;fill-opacity:1;stroke:none;stroke-width:0.263942px;stroke-linecap:butt;stroke-linejoin:miter;stroke-opacity:1"
         id="path1077" />
      <path
         d="m 156.43676,244.57359 q -0.34439,0.96769 -1.14794,1.46774 -0.80356,0.49542 -2.03186,0.49542 -0.7519,0 -1.40048,-0.23151 -0.64284,-0.2315 -1.14794,-0.68062 -0.57397,-0.51857 -0.85522,-1.17605 -0.28124,-0.6621 -0.28124,-1.49551 0,-1.61128 1.03314,-2.59749 1.03889,-0.99084 2.73784,-0.99084 0.63136,0 1.34309,0.14817 0.71746,0.14816 1.53824,0.44911 v 1.59276 h -0.58545 q -0.18941,-0.87046 -0.76912,-1.28254 -0.57397,-0.41208 -1.61286,-0.41208 -1.23403,0 -1.87114,0.78712 -0.63136,0.78249 -0.63136,2.30579 0,1.51867 0.63136,2.30578 0.63711,0.78249 1.87114,0.78249 0.86096,0 1.41771,-0.36578 0.56249,-0.37041 0.8093,-1.10196 z"
         style="font-style:normal;font-variant:normal;font-weight:normal;font-stretch:semi-condensed;font-size:10.5577px;line-height:125%;font-family:'DejaVu Serif';-inkscape-font-specification:'DejaVu Serif, Semi-Condensed';font-variant-ligatures:normal;font-variant-caps:normal;font-variant-numeric:normal;font-variant-east-asian:normal;letter-spacing:0px;word-spacing:0px;fill:#ffffff;fill-opacity:1;stroke:none;stroke-width:0.263942px;stroke-linecap:butt;stroke-linejoin:miter;stroke-opacity:1"
         id="path1079" />
      <path
         d="m 162.93448,243.10585 q 0.36161,0.0879 0.6199,0.30095 0.26402,0.20835 0.47065,0.58802 l 1.11924,2.05113 h 0.94131 v 0.4908 h -1.81949 l -1.20533,-2.1993 q -0.34438,-0.63896 -0.6371,-0.82416 -0.28699,-0.18983 -0.79209,-0.18983 h -1.15368 v 2.72249 h 1.09054 v 0.4908 h -3.11665 v -0.4908 h 0.98149 v -5.92651 h -0.98149 v -0.49543 h 3.90873 q 1.12499,0 1.7334,0.48154 0.61414,0.48153 0.61414,1.36587 0,0.71304 -0.44769,1.12511 -0.44196,0.40745 -1.32588,0.50932 z m -2.45659,-0.27781 h 1.52676 q 0.7806,0 1.14795,-0.32873 0.37307,-0.33337 0.37307,-1.02789 0,-0.69451 -0.37307,-1.02325 -0.36735,-0.32873 -1.14795,-0.32873 h -1.52676 z"
         style="font-style:normal;font-variant:normal;font-weight:normal;font-stretch:semi-condensed;font-size:10.5577px;line-height:125%;font-family:'DejaVu Serif';-inkscape-font-specification:'DejaVu Serif, Semi-Condensed';font-variant-ligatures:normal;font-variant-caps:normal;font-variant-numeric:normal;font-variant-east-asian:normal;letter-spacing:0px;word-spacing:0px;fill:#ffffff;fill-opacity:1;stroke:none;stroke-width:0.263942px;stroke-linecap:butt;stroke-linejoin:miter;stroke-opacity:1"
         id="path1081" />
      <path
         d="m 170.20974,244.03187 h 2.82966 l -1.41197,-3.28737 z m -2.18109,2.50488 v -0.49079 h 0.67728 l 2.74932,-6.42194 h 0.86669 l 2.75505,6.42194 h 0.75765 v 0.49079 h -2.80672 v -0.49079 h 0.86096 l -0.64859,-1.51867 h -3.24292 l -0.64286,1.51867 h 0.84375 v 0.49079 z"
         style="font-style:normal;font-variant:normal;font-weight:normal;font-stretch:semi-condensed;font-size:10.5577px;line-height:125%;font-family:'DejaVu Serif';-inkscape-font-specification:'DejaVu Serif, Semi-Condensed';font-variant-ligatures:normal;font-variant-caps:normal;font-variant-numeric:normal;font-variant-east-asian:normal;letter-spacing:0px;word-spacing:0px;fill:#ffffff;fill-opacity:1;stroke:none;stroke-width:0.263942px;stroke-linecap:butt;stroke-linejoin:miter;stroke-opacity:1"
         id="path1083" />
      <path
         d="m 185.12961,244.57358 q -0.34438,0.96769 -1.14794,1.46775 -0.80356,0.49542 -2.03185,0.49542 -0.7519,0 -1.40049,-0.23151 -0.64285,-0.23151 -1.14794,-0.68062 -0.57397,-0.51858 -0.85521,-1.17605 -0.28124,-0.6621 -0.28124,-1.49552 0,-1.61127 1.03314,-2.59748 1.03889,-0.99084 2.73783,-0.99084 0.63137,0 1.34309,0.14817 0.71746,0.14815 1.53824,0.44911 v 1.59275 h -0.58545 q -0.1894,-0.87046 -0.76911,-1.28253 -0.57397,-0.41208 -1.61286,-0.41208 -1.23404,0 -1.87114,0.78711 -0.63137,0.78249 -0.63137,2.30579 0,1.51867 0.63137,2.30579 0.6371,0.78249 1.87114,0.78249 0.86096,0 1.4177,-0.36579 0.5625,-0.3704 0.8093,-1.10196 z"
         style="font-style:normal;font-variant:normal;font-weight:normal;font-stretch:semi-condensed;font-size:10.5577px;line-height:125%;font-family:'DejaVu Serif';-inkscape-font-specification:'DejaVu Serif, Semi-Condensed';font-variant-ligatures:normal;font-variant-caps:normal;font-variant-numeric:normal;font-variant-east-asian:normal;letter-spacing:0px;word-spacing:0px;fill:#ffffff;fill-opacity:1;stroke:none;stroke-width:0.263942px;stroke-linecap:butt;stroke-linejoin:miter;stroke-opacity:1"
         id="path1085" />
      <path
         d="m 190.10362,246.04595 h 0.98148 v 0.4908 h -3.00759 v -0.4908 h 0.98148 v -5.92651 h -0.98148 v -0.49542 h 3.00759 v 0.49542 h -0.98148 z"
         style="font-style:normal;font-variant:normal;font-weight:normal;font-stretch:semi-condensed;font-size:10.5577px;line-height:125%;font-family:'DejaVu Serif';-inkscape-font-specification:'DejaVu Serif, Semi-Condensed';font-variant-ligatures:normal;font-variant-caps:normal;font-variant-numeric:normal;font-variant-east-asian:normal;letter-spacing:0px;word-spacing:0px;fill:#ffffff;fill-opacity:1;stroke:none;stroke-width:0.263942px;stroke-linecap:butt;stroke-linejoin:miter;stroke-opacity:1"
         id="path1087" />
      <path
         d="m 196.36143,244.03187 h 2.82968 l -1.41197,-3.28737 z m -2.18108,2.50488 v -0.49079 h 0.67729 l 2.7493,-6.42194 h 0.86671 l 2.75505,6.42194 h 0.75763 v 0.49079 h -2.8067 v -0.49079 h 0.86095 l -0.64858,-1.51867 h -3.24294 l -0.64284,1.51867 h 0.84373 v 0.49079 z"
         style="font-style:normal;font-variant:normal;font-weight:normal;font-stretch:semi-condensed;font-size:10.5577px;line-height:125%;font-family:'DejaVu Serif';-inkscape-font-specification:'DejaVu Serif, Semi-Condensed';font-variant-ligatures:normal;font-variant-caps:normal;font-variant-numeric:normal;font-variant-east-asian:normal;letter-spacing:0px;word-spacing:0px;fill:#ffffff;fill-opacity:1;stroke:none;stroke-width:0.263942px;stroke-linecap:butt;stroke-linejoin:miter;stroke-opacity:1"
         id="path1089" />
    </g>
  </g>
</svg>
